<svg height="511pt" viewBox="0 0 511 511.99928" width="511pt" xmlns="http://www.w3.org/2000/svg"><g fill="#c9f3ff"><path d="m98.476562 310.84375h-51.320312v147.835938c0 17.464843 10.175781 32.550781 24.921875 39.652343 15.535156-6.789062 26.398437-22.28125 26.398437-40.320312zm0 0"/><path d="m233.109375 312.175781h-51.320313v147.835938c0 16.886719 9.519532 31.542969 23.480469 38.917969 16.300781-6.441407 27.839844-22.328126 27.839844-40.917969zm0 0"/><path d="m367.742188 312.175781h-53.988282v147.835938c0 17.339843 10.035156 32.328125 24.609375 39.492187 17.109375-6.023437 29.378907-22.320312 29.378907-41.492187zm0 0"/><path d="m502.375 315.507812h-51.320312v147.835938c0 15.410156 7.929687 28.960938 19.925781 36.816406 18.152343-5.417968 31.394531-22.230468 31.394531-42.148437zm0 0"/></g><path d="m204.769531 176.835938c-12.074219 16.128906-27.773437 39.808593-27.773437 53.898437 0 16.371094 9.492187 30.519531 23.269531 37.257813 17.476563-4.871094 30.304687-20.894532 30.304687-39.921876 0-13.332031-14.058593-35.25-25.800781-51.234374zm0 0" fill="#ff5d5d"/><path d="m335.570312 29.328125-75.90625 43.824219c-14.648437 8.457031-22.519531 24.125-21.746093 39.929687l-15.011719 8.664063 6.910156 6.464844c13.300782 8.570312 30.808594 9.585937 45.453125 1.132812l173.847657-100.019531h-113.546876zm0 0" fill="#fe8f8d"/><path d="m98.476562 300.179688h-87.980468c-5.519532 0-9.996094 4.476562-9.996094 9.996093v147.835938c0 29.769531 24.21875 53.988281 53.984375 53.988281 29.769531 0 53.988281-24.21875 53.988281-53.988281v-147.835938c0-5.519531-4.476562-9.996093-9.996094-9.996093zm-10 157.832031c0 18.746093-15.246093 33.992187-33.992187 33.992187-18.742187 0-33.988281-15.246094-33.988281-33.992187v-137.835938h67.980468zm0 0"/><path d="m233.109375 382.40625c-2.636719 0-5.207031 1.0625-7.066406 2.933594-1.871094 1.847656-2.929688 4.425781-2.929688 7.066406 0 2.628906 1.058594 5.207031 2.929688 7.066406 1.859375 1.859375 4.429687 2.929688 7.066406 2.929688 2.632813 0 5.210937-1.066406 7.070313-2.929688 1.859374-1.859375 2.929687-4.4375 2.929687-7.066406 0-2.640625-1.070313-5.21875-2.929687-7.066406-1.859376-1.871094-4.4375-2.933594-7.070313-2.933594zm0 0"/><path d="m233.109375 422.394531c-5.523437 0-10 4.476563-10 9.996094v25.621094c0 18.746093-15.246094 33.992187-33.992187 33.992187-18.742188 0-33.988282-15.246094-33.988282-33.992187v-137.835938h67.980469v34.734375c0 5.523438 4.476563 10 10 10 5.519531 0 9.996094-4.476562 9.996094-10v-44.734375c0-5.519531-4.476563-9.996093-9.996094-9.996093h-87.980469c-5.519531 0-9.996094 4.476562-9.996094 9.996093v147.835938c0 29.769531 24.21875 53.988281 53.984376 53.988281 29.769531 0 53.988281-24.21875 53.988281-53.988281v-25.621094c0-5.519531-4.476563-9.996094-9.996094-9.996094zm0 0"/><path d="m367.742188 300.179688h-87.980469c-5.519531 0-9.996094 4.476562-9.996094 9.996093v147.835938c0 29.769531 24.21875 53.988281 53.988281 53.988281 29.765625 0 53.984375-24.21875 53.984375-53.988281v-147.835938c0-5.519531-4.476562-9.996093-9.996093-9.996093zm-10 157.832031c0 18.746093-15.246094 33.992187-33.988282 33.992187-18.746094 0-33.992187-15.246094-33.992187-33.992187v-137.835938h67.980469zm0 0"/><path d="m502.375 300.179688h-87.980469c-5.519531 0-9.996093 4.476562-9.996093 9.996093v147.835938c0 29.769531 24.21875 53.988281 53.984374 53.988281 29.769532 0 53.988282-24.21875 53.988282-53.988281v-147.835938c0-5.519531-4.476563-9.996093-9.996094-9.996093zm-10 157.832031c0 18.746093-15.246094 33.992187-33.992188 33.992187-18.742187 0-33.988281-15.246094-33.988281-33.992187v-137.835938h67.980469zm0 0"/><path d="m189.117188 279.519531c28.371093 0 51.449218-23.082031 51.449218-51.449219 0-25.316406-36.542968-69.105468-43.867187-77.625-1.898438-2.210937-4.667969-3.480468-7.582031-3.480468-2.910157 0-5.679688 1.269531-7.578126 3.480468-7.328124 8.519532-43.867187 52.304688-43.867187 77.625 0 28.367188 23.078125 51.449219 51.445313 51.449219zm.003906-106.820312c14.917968 18.886719 31.449218 44.105469 31.449218 55.371093 0 17.34375-14.109374 31.453126-31.453124 31.453126s-31.453126-14.109376-31.453126-31.453126c.003907-11.246093 16.539063-36.472656 31.457032-55.371093zm0 0"/><path d="m491.378906 5.015625c-2.753906-4.785156-8.867187-6.4375-13.652344-3.683594l-93.835937 53.988281c-4.789063 2.753907-6.433594 8.863282-3.683594 13.648438 1.851563 3.214844 5.214844 5.015625 8.675781 5.015625 1.691407 0 3.40625-.429687 4.976563-1.332031l93.839844-53.988282c4.785156-2.753906 6.433593-8.863281 3.679687-13.648437zm0 0"/><path d="m361.191406 89.914062c1.691406 0 3.410156-.429687 4.980469-1.332031l.296875-.175781c4.789062-2.753906 6.433594-8.863281 3.679688-13.648438-2.753907-4.785156-8.867188-6.433593-13.652344-3.679687l-.300782.171875c-4.785156 2.757812-6.433593 8.867188-3.675781 13.652344 1.847657 3.214844 5.214844 5.011718 8.671875 5.011718zm0 0"/><path d="m333.746094 107.234375c4.785156-2.75 6.433594-8.863281 3.679687-13.648437-2.753906-4.785157-8.867187-6.4375-13.652343-3.679688l-53.5 30.78125c-10.960938 6.320312-24.382813 5.988281-35.039063-.878906-3.148437-2.03125-7.171875-2.128906-10.414063-.253906l-15.011718 8.664062c-4.726563 2.730469-10.792969 1.105469-13.519532-3.621094-2.730468-4.726562-1.105468-10.792968 3.621094-13.519531l15.011719-8.667969c3.246094-1.871094 5.171875-5.402344 4.988281-9.144531-.621094-12.660156 5.800782-24.457031 16.757813-30.78125l75.910156-43.828125c4.78125-2.761719 6.421875-8.875 3.660156-13.65625s-8.875-6.421875-13.65625-3.65625l-75.910156 43.824219c-15.644531 9.03125-25.492187 25.042969-26.679687 42.773437l-10.078126 5.820313c-14.273437 8.242187-19.183593 26.558593-10.941406 40.835937 5.53125 9.578125 15.597656 14.9375 25.9375 14.9375 5.070313-.003906 10.203125-1.289062 14.894532-4l10.082031-5.820312c15.949219 7.839844 34.738281 7.316406 50.367187-1.707032zm0 0"/></svg>